<svg xmlns="http://www.w3.org/2000/svg" width="2360" height="1120" viewBox="0 0 2360 1120">
  <defs>
    <style>
      .bg { fill: #eef2f3; }
      .ink { fill: #101316; }
      .graphite { fill: #1c2228; }
      .paper { fill: #f8faf7; }
      .white { fill: #ffffff; }
      .mist { fill: #eef2f3; }
      .line { stroke: #dce2e3; stroke-width: 1; }
      .slate { fill: #68717a; }
      .muted { fill: #aab3b5; }
      .volt { fill: #c7f464; }
      .ember { fill: #ff7a45; }
      .steel { fill: #7aa7b7; }
      .title { font: 700 42px -apple-system, BlinkMacSystemFont, "Inter", "Segoe UI", sans-serif; letter-spacing: 0; }
      .h1 { font: 700 31px -apple-system, BlinkMacSystemFont, "Inter", "Segoe UI", sans-serif; letter-spacing: 0; }
      .h2 { font: 700 22px -apple-system, BlinkMacSystemFont, "Inter", "Segoe UI", sans-serif; letter-spacing: 0; }
      .h3 { font: 700 16px -apple-system, BlinkMacSystemFont, "Inter", "Segoe UI", sans-serif; letter-spacing: 0; }
      .body { font: 400 15px -apple-system, BlinkMacSystemFont, "Inter", "Segoe UI", sans-serif; letter-spacing: 0; }
      .meta { font: 600 12px -apple-system, BlinkMacSystemFont, "Inter", "Segoe UI", sans-serif; letter-spacing: 0; }
      .tiny { font: 700 11px -apple-system, BlinkMacSystemFont, "Inter", "Segoe UI", sans-serif; letter-spacing: 0; }
      .button { font: 700 15px -apple-system, BlinkMacSystemFont, "Inter", "Segoe UI", sans-serif; letter-spacing: 0; }
      .num { font: 700 28px -apple-system, BlinkMacSystemFont, "Inter", "Segoe UI", sans-serif; letter-spacing: 0; }
      .phone-shadow { filter: drop-shadow(0 22px 42px rgba(16, 19, 22, 0.16)); }
      .board-shadow { filter: drop-shadow(0 18px 32px rgba(16, 19, 22, 0.12)); }
    </style>
  </defs>

  <rect class="bg" width="2360" height="1120"/>

  <g transform="translate(48 52)" class="board-shadow">
    <rect class="ink" width="500" height="970" rx="22"/>
    <text x="36" y="68" class="title paper">Kinetic v2</text>
    <text x="38" y="112" class="body" fill="#d8dfdf">Mobbin-informed workout planning and set logging.</text>
    <rect x="38" y="150" width="106" height="30" rx="15" class="volt"/>
    <text x="91" y="170" text-anchor="middle" class="meta ink">Light-first</text>
    <rect x="156" y="150" width="116" height="30" rx="15" fill="#e4eced"/>
    <text x="214" y="170" text-anchor="middle" class="meta ink">One-handed</text>
    <rect x="284" y="150" width="118" height="30" rx="15" fill="#e4eced"/>
    <text x="343" y="170" text-anchor="middle" class="meta ink">Strength-led</text>

    <text x="38" y="238" class="tiny volt">MOBBIN SIGNAL</text>
    <g transform="translate(38 268)">
      <rect width="424" height="76" rx="14" fill="#1f282d" stroke="#334047"/>
      <text x="20" y="32" class="h3 paper">Hevy</text>
      <text x="112" y="28" class="body" fill="#c7d0d0">Use compact exercise blocks and</text>
      <text x="112" y="50" class="body" fill="#c7d0d0">set tables, but soften the density.</text>
    </g>
    <g transform="translate(38 364)">
      <rect width="424" height="76" rx="14" fill="#1f282d" stroke="#334047"/>
      <text x="20" y="32" class="h3 paper">Fitbod</text>
      <text x="112" y="28" class="body" fill="#c7d0d0">Put records beside the set and</text>
      <text x="112" y="50" class="body" fill="#c7d0d0">lead progress with one trend.</text>
    </g>
    <g transform="translate(38 460)">
      <rect width="424" height="76" rx="14" fill="#1f282d" stroke="#334047"/>
      <text x="20" y="32" class="h3 paper">Ladder</text>
      <text x="112" y="28" class="body" fill="#c7d0d0">Saved plans should feel friendly,</text>
      <text x="112" y="50" class="body" fill="#c7d0d0">approachable, and reusable.</text>
    </g>
    <g transform="translate(38 556)">
      <rect width="424" height="76" rx="14" fill="#1f282d" stroke="#334047"/>
      <text x="20" y="32" class="h3 paper">Strava</text>
      <text x="112" y="28" class="body" fill="#c7d0d0">Reward effort with concise stats,</text>
      <text x="112" y="50" class="body" fill="#c7d0d0">without becoming social-first.</text>
    </g>

    <text x="38" y="720" class="tiny volt">PRODUCT LOOP</text>
    <text x="38" y="756" class="body paper">Plans are the home base.</text>
    <text x="38" y="784" class="body paper">Logging is table logic plus a thumb-first row.</text>
    <text x="38" y="812" class="body paper">Progress answers: am I getting stronger?</text>
    <text x="38" y="840" class="body paper">Delight stays small: save pulse, PR badge,</text>
    <text x="38" y="868" class="body paper">and clear progress deltas.</text>
  </g>

  <g transform="translate(590 52)" class="board-shadow">
    <rect class="paper" width="500" height="970" rx="22"/>
    <text x="36" y="68" class="h1 ink">Design philosophy</text>
    <text x="36" y="106" class="body slate">A calm strength tool, not a content feed.</text>
    <text x="36" y="166" class="tiny slate">CORE RULES</text>
    <g transform="translate(36 196)">
      <rect width="428" height="90" rx="16" class="white line"/>
      <text x="20" y="34" class="h3 ink">Plan cards are friendly</text>
      <text x="20" y="60" class="body slate">Day label, exercises, last win, and quick edit.</text>
    </g>
    <g transform="translate(36 306)">
      <rect width="428" height="90" rx="16" class="white line"/>
      <text x="20" y="34" class="h3 ink">Set tables are compact</text>
      <text x="20" y="60" class="body slate">Previous values stay visible, current row gets focus.</text>
    </g>
    <g transform="translate(36 416)">
      <rect width="428" height="90" rx="16" class="white line"/>
      <text x="20" y="34" class="h3 ink">Inputs live near the thumb</text>
      <text x="20" y="60" class="body slate">Large reps and weight controls, plus fast correction.</text>
    </g>
    <g transform="translate(36 526)">
      <rect width="428" height="90" rx="16" class="white line"/>
      <text x="20" y="34" class="h3 ink">Progress is a sentence</text>
      <text x="20" y="60" class="body slate">"You added 2.5 kg" beats generic dashboards.</text>
    </g>
    <text x="36" y="688" class="tiny slate">PALETTE USE</text>
    <rect x="36" y="722" width="92" height="54" rx="12" fill="#101316"/>
    <text x="36" y="804" class="meta ink">Ink</text>
    <rect x="146" y="722" width="92" height="54" rx="12" fill="#f8faf7" stroke="#dce2e3"/>
    <text x="146" y="804" class="meta ink">Paper</text>
    <rect x="256" y="722" width="92" height="54" rx="12" fill="#c7f464"/>
    <text x="256" y="804" class="meta ink">Volt</text>
    <rect x="366" y="722" width="92" height="54" rx="12" fill="#7aa7b7"/>
    <text x="366" y="804" class="meta ink">Steel</text>
    <text x="36" y="884" class="body slate">Volt is reserved for save actions, PR moments,</text>
    <text x="36" y="908" class="body slate">and progress deltas so it keeps its punch.</text>
  </g>

  <g transform="translate(1140 52)" class="phone-shadow">
    <rect class="paper" width="393" height="852" rx="36" stroke="#c8ced0"/>
    <rect x="154" y="11" width="85" height="25" rx="13" class="ink"/>
    <text x="26" y="34" class="meta ink">9:41</text>
    <rect x="304" y="22" width="17" height="8" rx="2" class="ink"/>
    <rect x="327" y="22" width="15" height="8" rx="4" class="ink"/>
    <rect x="350" y="19" width="24" height="12" rx="3" class="ink"/>
    <text x="24" y="82" class="tiny slate">PLANS</text>
    <text x="24" y="122" class="h1 ink">Your training</text>
    <circle cx="352" cy="101" r="19" class="ink"/>
    <text x="352" y="107" text-anchor="middle" class="meta paper">M</text>

    <rect x="22" y="154" width="349" height="136" rx="22" class="white line"/>
    <text x="44" y="190" class="tiny slate">MONDAY</text>
    <text x="44" y="220" class="h2 ink">Upper Strength</text>
    <text x="44" y="250" class="meta slate">5 exercises · 18 target sets</text>
    <rect x="242" y="180" width="100" height="30" rx="15" class="volt"/>
    <text x="292" y="201" text-anchor="middle" class="tiny ink">Log set</text>
    <text x="44" y="272" class="meta steel">Bench +2.5 kg last time</text>

    <rect x="22" y="310" width="349" height="116" rx="22" class="white line"/>
    <text x="44" y="346" class="tiny slate">WEDNESDAY</text>
    <text x="44" y="376" class="h2 ink">Lower Strength</text>
    <text x="44" y="406" class="meta slate">4 exercises · 16 target sets</text>
    <rect x="280" y="342" width="62" height="28" rx="14" class="mist"/>
    <text x="311" y="361" text-anchor="middle" class="tiny ink">Edit</text>

    <text x="22" y="480" class="tiny slate">RECENT PROGRESS</text>
    <rect x="22" y="506" width="166" height="92" rx="16" class="white line"/>
    <text x="42" y="536" class="meta slate">Bench Press</text>
    <text x="42" y="570" class="num ink">82.5 kg</text>
    <text x="42" y="590" class="tiny steel">new best</text>
    <rect x="205" y="506" width="166" height="92" rx="16" class="white line"/>
    <text x="225" y="536" class="meta slate">Total volume</text>
    <text x="225" y="570" class="num ink">7.8k</text>
    <text x="225" y="590" class="tiny steel">up 9%</text>

    <rect x="22" y="690" width="349" height="56" rx="16" class="ink"/>
    <text x="196" y="726" text-anchor="middle" class="button paper">Create plan</text>
    <rect x="22" y="766" width="349" height="52" rx="24" class="white line"/>
    <text x="66" y="798" text-anchor="middle" class="tiny ink">Plans</text>
    <text x="148" y="798" text-anchor="middle" class="tiny slate">Log</text>
    <text x="230" y="798" text-anchor="middle" class="tiny slate">Progress</text>
    <text x="312" y="798" text-anchor="middle" class="tiny slate">Me</text>
    <rect x="130" y="834" width="133" height="5" rx="3" class="ink" opacity="0.8"/>
  </g>

  <g transform="translate(1580 52)" class="phone-shadow">
    <rect class="paper" width="393" height="852" rx="36" stroke="#c8ced0"/>
    <rect x="154" y="11" width="85" height="25" rx="13" class="ink"/>
    <text x="26" y="34" class="meta ink">9:41</text>
    <text x="24" y="82" class="meta slate">Plans</text>
    <text x="24" y="122" class="h1 ink">Plan builder</text>
    <rect x="272" y="86" width="90" height="36" rx="18" class="volt"/>
    <text x="317" y="109" text-anchor="middle" class="meta ink">Save</text>

    <rect x="22" y="154" width="349" height="74" rx="18" class="white line"/>
    <text x="44" y="184" class="tiny slate">PLAN NAME</text>
    <text x="44" y="210" class="h3 ink">Upper Strength</text>

    <rect x="22" y="256" width="349" height="168" rx="18" class="white line"/>
    <rect x="38" y="280" width="4" height="120" rx="2" class="mist"/>
    <text x="58" y="292" class="h3 ink">Bench Press</text>
    <text x="58" y="318" class="meta slate">5 sets · target 5 reps</text>
    <rect x="58" y="344" width="74" height="34" rx="12" class="mist"/>
    <text x="95" y="366" text-anchor="middle" class="tiny ink">82.5 kg</text>
    <rect x="144" y="344" width="74" height="34" rx="12" class="mist"/>
    <text x="181" y="366" text-anchor="middle" class="tiny ink">last 5</text>
    <rect x="230" y="344" width="102" height="34" rx="12" class="volt"/>
    <text x="281" y="366" text-anchor="middle" class="tiny ink">recent best</text>
    <text x="58" y="400" class="meta steel">Use last values as defaults</text>

    <rect x="22" y="444" width="349" height="116" rx="18" class="white line"/>
    <rect x="38" y="468" width="4" height="68" rx="2" class="mist"/>
    <text x="58" y="480" class="h3 ink">Pull-ups</text>
    <text x="58" y="506" class="meta slate">4 sets · target 8 reps</text>
    <rect x="270" y="478" width="62" height="30" rx="15" class="mist"/>
    <text x="301" y="498" text-anchor="middle" class="tiny ink">Edit</text>

    <rect x="22" y="586" width="349" height="52" rx="16" class="white line"/>
    <text x="54" y="619" class="h3 ink">Add exercise</text>
    <text x="328" y="619" text-anchor="middle" class="h3 slate">+</text>

    <text x="22" y="692" class="tiny slate">REORDER MODE</text>
    <text x="22" y="720" class="body slate">Large handles, no hidden gestures, sticky save.</text>
    <rect x="22" y="758" width="349" height="56" rx="16" class="ink"/>
    <text x="196" y="794" text-anchor="middle" class="button paper">Save plan</text>
    <rect x="130" y="834" width="133" height="5" rx="3" class="ink" opacity="0.8"/>
  </g>

  <g transform="translate(1140 1010)" class="phone-shadow">
    <rect class="paper" width="393" height="852" rx="36" stroke="#c8ced0"/>
    <rect x="154" y="11" width="85" height="25" rx="13" class="ink"/>
    <text x="24" y="84" class="meta slate">Upper Strength</text>
    <text x="24" y="124" class="h1 ink">Bench Press</text>
    <rect x="252" y="92" width="100" height="30" rx="15" class="volt"/>
    <text x="302" y="113" text-anchor="middle" class="tiny ink">+2.5 kg</text>

    <rect x="22" y="154" width="349" height="250" rx="22" class="white line"/>
    <text x="44" y="188" class="tiny slate">SETS</text>
    <text x="126" y="188" class="tiny slate">WEIGHT</text>
    <text x="222" y="188" class="tiny slate">REPS</text>
    <text x="306" y="188" class="tiny slate">STATE</text>
    <line x1="44" y1="204" x2="342" y2="204" stroke="#dce2e3"/>
    <text x="48" y="238" class="h3 ink">1</text>
    <text x="126" y="238" class="body ink">80 kg</text>
    <text x="222" y="238" class="body ink">5</text>
    <rect x="292" y="218" width="50" height="28" rx="14" class="mist"/>
    <text x="317" y="237" text-anchor="middle" class="tiny ink">Done</text>
    <text x="48" y="290" class="h3 ink">2</text>
    <text x="126" y="290" class="body ink">80 kg</text>
    <text x="222" y="290" class="body ink">5</text>
    <rect x="292" y="270" width="50" height="28" rx="14" class="mist"/>
    <text x="317" y="289" text-anchor="middle" class="tiny ink">Done</text>
    <rect x="34" y="316" width="325" height="58" rx="16" fill="#f1f8d5" stroke="#c7f464"/>
    <text x="48" y="352" class="h3 ink">3</text>
    <text x="126" y="352" class="body ink">82.5 kg</text>
    <text x="222" y="352" class="body ink">5</text>
    <rect x="292" y="332" width="50" height="28" rx="14" class="volt"/>
    <text x="317" y="351" text-anchor="middle" class="tiny ink">Now</text>

    <text x="22" y="452" class="tiny slate">CURRENT SET</text>
    <rect x="22" y="480" width="166" height="112" rx="18" class="white line"/>
    <text x="42" y="514" class="meta slate">Weight</text>
    <text x="42" y="556" class="num ink">82.5</text>
    <text x="126" y="556" class="meta slate">kg</text>
    <rect x="205" y="480" width="166" height="112" rx="18" class="white line"/>
    <text x="225" y="514" class="meta slate">Reps</text>
    <text x="225" y="556" class="num ink">5</text>
    <rect x="42" y="616" width="56" height="40" rx="14" class="mist"/>
    <text x="70" y="642" text-anchor="middle" class="h3 ink">-</text>
    <rect x="112" y="616" width="56" height="40" rx="14" class="ink"/>
    <text x="140" y="642" text-anchor="middle" class="h3 paper">+</text>
    <rect x="225" y="616" width="56" height="40" rx="14" class="mist"/>
    <text x="253" y="642" text-anchor="middle" class="h3 ink">-</text>
    <rect x="295" y="616" width="56" height="40" rx="14" class="ink"/>
    <text x="323" y="642" text-anchor="middle" class="h3 paper">+</text>
    <rect x="22" y="690" width="349" height="56" rx="16" class="volt"/>
    <text x="196" y="726" text-anchor="middle" class="button ink">Save set</text>
    <text x="196" y="778" text-anchor="middle" class="meta steel">Last time: 80 kg x 5 · best: 82.5 kg x 5</text>
    <rect x="130" y="834" width="133" height="5" rx="3" class="ink" opacity="0.8"/>
  </g>

  <g transform="translate(1580 1010)" class="phone-shadow">
    <rect class="paper" width="393" height="852" rx="36" stroke="#c8ced0"/>
    <rect x="154" y="11" width="85" height="25" rx="13" class="ink"/>
    <text x="24" y="84" class="tiny slate">PROGRESS</text>
    <text x="24" y="124" class="h1 ink">Getting stronger</text>

    <rect x="22" y="154" width="349" height="160" rx="22" class="ink"/>
    <text x="44" y="190" class="tiny volt">BENCH PRESS</text>
    <text x="44" y="236" class="title paper">+2.5 kg</text>
    <text x="44" y="266" class="body" fill="#d8dfdf">New best compared with last week.</text>
    <rect x="262" y="198" width="66" height="66" rx="22" class="volt"/>
    <text x="295" y="238" text-anchor="middle" class="h2 ink">PR</text>

    <text x="22" y="366" class="tiny slate">STRENGTH TREND</text>
    <rect x="22" y="392" width="349" height="146" rx="18" class="white line"/>
    <polyline points="48,500 92,484 136,492 180,462 224,450 268,432 322,414" fill="none" stroke="#101316" stroke-width="4" stroke-linecap="round" stroke-linejoin="round"/>
    <circle cx="322" cy="414" r="7" class="volt"/>
    <text x="44" y="426" class="meta slate">Estimated strength</text>
    <text x="44" y="456" class="h2 ink">Trending up</text>

    <text x="22" y="590" class="tiny slate">RECENT BESTS</text>
    <rect x="22" y="618" width="349" height="64" rx="16" class="white line"/>
    <text x="44" y="646" class="h3 ink">Bench Press</text>
    <text x="44" y="668" class="meta slate">82.5 kg x 5 reps</text>
    <rect x="282" y="636" width="60" height="28" rx="14" class="volt"/>
    <text x="312" y="655" text-anchor="middle" class="tiny ink">New</text>
    <rect x="22" y="696" width="349" height="64" rx="16" class="white line"/>
    <text x="44" y="724" class="h3 ink">Pull-ups</text>
    <text x="44" y="746" class="meta slate">Bodyweight x 9 reps</text>
    <rect x="282" y="714" width="60" height="28" rx="14" class="mist"/>
    <text x="312" y="733" text-anchor="middle" class="tiny ink">Tied</text>
    <rect x="130" y="834" width="133" height="5" rx="3" class="ink" opacity="0.8"/>
  </g>
</svg>
